<svg width="23" height="21" viewBox="0 0 23 21" fill="none" xmlns="http://www.w3.org/2000/svg">
<path d="M1.1768 8.02375C1.2681 6.74515 2.24515 5.7681 3.52375 5.6768C4.8014 5.58555 8.68355 5.5 11.25 5.5C13.8165 5.5 17.6986 5.58555 18.9762 5.6768C20.2549 5.7681 21.2319 6.74515 21.3232 8.02375C21.4145 9.3014 21.5 10.1835 21.5 12.75C21.5 15.3165 21.4145 16.1986 21.3232 17.4762C21.2319 18.7548 20.2549 19.7319 18.9762 19.8232C17.6986 19.9145 13.8165 20 11.25 20C8.68355 20 4.8014 19.9145 3.52375 19.8232C2.24515 19.7319 1.2681 18.7548 1.1768 17.4762C1.08555 16.1986 1 15.3165 1 12.75C1 10.1835 1.08555 9.3014 1.1768 8.02375Z" stroke="CurrentColor" stroke-width="1.2" stroke-linecap="round" stroke-linejoin="round"/>
<path d="M9.00013 3.70316C9.00013 3.70316 14.0146 1.66643 15.2579 1.35842C16.5022 1.05013 17.5001 1 18.0001 2.2028L18.5001 4" stroke="CurrentColor" stroke-width="1.2" stroke-linecap="round" stroke-linejoin="round"/>
<path fill-rule="evenodd" clip-rule="evenodd" d="M16 12.7497V12.7497C16 11.9215 16.6717 11.25 17.5 11.25V11.25C18.3283 11.25 19 11.9215 19 12.7497V12.7497V12.7497C19 13.5782 18.3284 14.25 17.5 14.25V14.25C16.6716 14.25 16 13.5782 16 12.7497V12.7497Z" stroke="CurrentColor" stroke-width="1.2" stroke-linecap="round" stroke-linejoin="round"/>
</svg>
